# xmcd CD database file
#
# Track frame offsets:
#	150
#	28453
#	53754
#	79204
#	110336
#	156673
#	191493
#	243087
#
# Disc length: 3891 seconds
#
# Revision: 0
# Processed by: cddbd v1.4PL0 Copyright (c) Steve Scherf et al.
# Submitted via: CDex 1.50Beta5
#
DISCID=670f3108
DTITLE=Terry Oldfield - Turning Point
DYEAR=2002
DGENRE=New Age
TTITLE0=Guardian Angel
TTITLE1=Lost for Words
TTITLE2=Southern Shores
TTITLE3=Some Kind of Miracle
TTITLE4=Capture Me
TTITLE5=Bright Star
TTITLE6=Into the Blue
TTITLE7=Guardian Angel Video
EXTD=YEAR: 2002
EXTT0=
EXTT1=
EXTT2=
EXTT3=
EXTT4=
EXTT5=
EXTT6=
EXTT7=
PLAYORDER=
